<svg width="40" height="40" viewBox="0 0 40 40" fill="none" xmlns="http://www.w3.org/2000/svg">
<path d="M8.62795 27.2775C8.22592 27.6797 8.00008 28.2252 8.00008 28.7939C8.00008 29.3626 8.22592 29.908 8.62795 30.3102L10.1443 31.8266C10.5466 32.2286 11.092 32.4545 11.6607 32.4545C12.2294 32.4545 12.7748 32.2286 13.177 31.8266L20 25.0036L15.4509 20.4545L8.62795 27.2775ZM31.372 10.5989L29.8557 9.0825C29.4534 8.68046 28.908 8.45462 28.3393 8.45462C27.7706 8.45462 27.2252 8.68046 26.823 9.0825L20 15.9055L24.5491 20.4545L31.372 13.6316C31.7741 13.2294 31.9999 12.6839 31.9999 12.1152C31.9999 11.5465 31.7741 11.0011 31.372 10.5989Z" fill="#E39739"/>
<path d="M31.372 27.2775C31.7741 27.6797 31.9999 28.2252 31.9999 28.7939C31.9999 29.3626 31.7741 29.908 31.372 30.3102L29.8557 31.8266C29.4534 32.2286 28.908 32.4545 28.3393 32.4545C27.7706 32.4545 27.2252 32.2286 26.823 31.8266L8.62795 13.6316C8.22592 13.2294 8.00008 12.6839 8.00008 12.1152C8.00008 11.5465 8.22592 11.0011 8.62795 10.5989L10.1443 9.0825C10.5466 8.68046 11.092 8.45462 11.6607 8.45462C12.2294 8.45462 12.7748 8.68046 13.177 9.0825L31.372 27.2775Z" fill="#C2371E"/>
</svg>
