<?xml version="1.0" encoding="UTF-8"?>
<svg width="168px" height="24px" viewBox="0 0 168 24" version="1.1" xmlns="http://www.w3.org/2000/svg" xmlns:xlink="http://www.w3.org/1999/xlink">
    <title>sprite-social</title>
    <g id="sprite-social" stroke="none" stroke-width="1" fill="none" fill-rule="evenodd">
        <g id="Icon" transform="translate(27.000000, 2.000000)" fill="#FA6400" fill-rule="nonzero">
            <path d="M13.023407,18.1875124 C14.2929353,18.0156226 15.2890266,17.5039203 16.2226334,16.5507823 C16.8984054,15.8593701 17.3202718,15.1132934 17.5975996,14.1250221 C17.6996909,13.7583441 17.7428847,12.1961177 17.7491138,10.765157 L17.7497599,10.2372912 C17.747758,9.20423154 17.7265056,8.33830038 17.6952556,8.19924736 C17.6249509,7.88674811 17.4296389,7.59767104 17.2069756,7.47659284 C17.1366709,7.43753043 16.6991643,7.39064791 16.2304154,7.37111671 C15.4452763,7.33594528 15.3593313,7.32034321 15.1093548,7.17580467 C14.7148016,6.94532121 14.6093255,6.6953447 14.6054345,6.02346367 C14.6015435,4.73440424 14.0663809,3.53518072 13.0077668,2.45707355 C12.25387,1.68753651 11.4101373,1.16801413 10.4491792,0.875046074 C10.2187339,0.804741371 9.70310246,0.781281039 7.97653645,0.761749836 C7.67532443,0.758278469 7.40015355,0.755868152 7.147691,0.754673602 L6.67205617,0.754673602 C5.03183867,0.761483174 4.49333762,0.853203452 3.74219443,1.1523739 C2.04297973,1.82425493 0.82422501,3.25392376 0.378898313,5.08207492 C0.296882518,5.42581647 0.277351314,5.97658115 0.257820111,9.14063611 C0.254561731,9.69130754 0.252283515,10.1767245 0.251435357,10.6064944 L0.251435357,11.3220563 C0.257317608,13.3741865 0.316396767,13.8619909 0.507796627,14.4726546 C1.11719306,16.4101729 2.84765006,17.8437327 4.58592716,18.156232 C5.16404315,18.2617081 12.2929324,18.2851684 13.023407,18.1875124 Z M7.30759439,7.35663088 L6.91946713,7.35660685 C6.17359122,7.35361492 5.62420899,7.33362595 5.52731591,7.30863211 C4.87889521,7.12503117 4.63670066,6.19535352 5.11326966,5.7148554 C5.39357447,5.43097088 5.48874264,5.39834785 6.98654011,5.39494503 L7.82112872,5.39474208 C9.01133855,5.39605763 9.18092386,5.4072156 9.37147186,5.4964939 L9.4335566,5.52736347 L9.4335566,5.52736347 C9.7968675,5.71096442 9.95700811,5.96876104 9.95700811,6.38284544 C9.95700811,6.75393831 9.80857859,7.01566406 9.47654813,7.22657817 C9.29683817,7.33987441 9.19140019,7.34769452 7.5117167,7.35547649 L7.30759439,7.35663088 L7.30759439,7.35663088 Z M5.44530011,13.5703283 C5.16797228,13.449212 4.90624653,13.1132905 4.86325499,12.8125024 C4.8203016,12.5273544 4.96484014,12.1367303 5.18357436,11.9375273 C5.46094033,11.6875127 5.58201854,11.6796926 8.98433892,11.6758016 L10.4589725,11.675575 C12.4876087,11.6804449 12.5201607,11.7233072 12.7968527,11.9804807 C13.2694926,12.4218783 13.1679456,13.1992354 12.6054317,13.5195548 L12.0234247,13.6132817 L8.99608816,13.6484531 C6.33591536,13.6796954 5.58590952,13.6328129 5.44530011,13.5703283 Z" id="blogger-b"></path>
        </g>
        <g id="Icon" transform="translate(50.000000, 2.000000)" fill="#FA6400" fill-rule="nonzero">
            <path d="M6.29438807,17.6218323 C13.8324789,17.6218323 17.9568053,11.3781796 17.9568053,5.9594532 C17.9568053,5.78180317 17.9568053,5.60407685 17.9441024,5.42642682 C18.7435848,4.84266509 19.4415964,4.11932392 19.999876,3.30717681 C19.2638701,3.62440628 18.4643877,3.85286795 17.6394996,3.94167389 C18.4897173,3.43409149 19.1369173,2.63460914 19.4415201,1.68280629 C18.6546644,2.15235626 17.7663761,2.49499155 16.8400172,2.67264158 C16.0912321,1.87315923 15.0252938,1.37824159 13.8450674,1.37824159 C11.573535,1.37824159 9.74610866,3.21833272 9.74610866,5.47720032 C9.74610866,5.79446794 9.78417925,6.11169741 9.84761751,6.41626211 C6.44667042,6.23857394 3.41365,4.61424157 1.39590884,2.12695044 C1.04053249,2.73607985 0.837552935,3.43405334 0.837552935,4.1954651 C0.837552935,5.61677976 1.56085596,6.87310917 2.66490301,7.60915325 C1.99237348,7.58382372 1.35780011,7.39347078 0.812147112,7.08890608 L0.812147112,7.13964143 C0.812147112,9.13201491 2.22079701,10.781715 4.09895873,11.162459 C3.75636159,11.2512649 3.38832047,11.3020384 3.02031751,11.3020384 C2.75378524,11.3020384 2.5,11.2766708 2.24616469,11.2386002 C2.76648816,12.8629707 4.27664691,14.0431589 6.07866745,14.0812676 C4.67001755,15.1853147 2.90602945,15.8325147 0.989835287,15.8325147 C0.647199995,15.8325147 0.329970527,15.8198118 0,15.7817793 C1.81472346,16.9492265 3.97204406,17.6218323 6.29438807,17.6218323 Z" id="twitter"></path>
        </g>
        <g id="Icon" transform="translate(75.000000, 2.000000)" fill="#FA6400" fill-rule="nonzero">
            <path d="M2.35116839,3.72267265 C3.51094804,3.72267265 4.45233678,2.7617527 4.45233678,1.60159158 C4.45233678,0.441773792 3.51102433,-0.499576808 2.35116839,-0.499576808 C1.19131245,-0.499576808 0.25,0.441773792 0.25,1.60159158 C0.25,2.7617527 1.19100728,3.72267265 2.35116839,3.72267265 Z M10.0640483,17 L10.0640483,11.2148728 C10.0640483,9.69143893 10.3530872,8.21877857 12.2394123,8.21877857 C14.0364204,8.21877857 14.1218789,9.84310195 14.1255795,11.175784 L14.1257375,17 L17.7499583,17 L17.7499583,10.5820542 C17.7499583,7.44142141 17.0749492,5.02348131 13.403083,5.02348131 C11.6378742,5.02348131 10.4546723,5.99222137 9.97028322,6.91018794 L9.91950972,6.91018794 L9.91950972,5.31644936 L6.43982747,5.31644936 L6.43982747,17 L10.0640483,17 Z M4.16718884,17 L4.16718884,5.31644936 L0.53907707,5.31644936 L0.53907707,17 L4.16718884,17 Z" id="linkedin-in"></path>
        </g>
        <g id="Icon" transform="translate(5.500000, 2.000000)" fill="#FA6400" fill-rule="nonzero">
            <path d="M8.23631671,19.499994 L8.23631671,10.7500149 L11.1538665,10.7500149 L11.7093614,7.13048618 L8.23631671,7.13048618 L8.23631671,4.78166823 C8.23631671,3.79145147 8.72146876,2.82622093 10.276946,2.82622093 L11.8558454,2.82622093 L11.8558454,-0.255436765 C11.8558454,-0.255436765 10.4230104,-0.499958277 9.05311774,-0.499958277 C6.19294085,-0.499958277 4.32343847,1.23362676 4.32343847,4.37189443 L4.32343847,7.13048618 L1.14412476,7.13048618 L1.14412476,10.7500149 L4.32343847,10.7500149 L4.32343847,19.499994 L8.23631671,19.499994 Z" id="facebook-f"></path>
        </g>
        <g id="Icon" transform="translate(96.500000, 2.000000)" fill="#FA6400" fill-rule="nonzero">
            <path d="M19.8347617,16.5513164 C20.7526138,16.3044298 21.4754972,15.6071429 21.7208579,14.6833399 C21.8646594,14.14318 21.9620732,13.4137188 22.0280633,12.6732941 L22.0640062,12.2291504 C22.1504367,11.0488681 22.1640836,9.93182862 22.1662384,9.60850463 L22.1662384,9.42182076 C22.1640836,9.09850021 22.1504367,7.98147236 22.0640062,6.80119936 L22.0280633,6.35705906 C21.9620732,5.6166398 21.8646594,4.8871825 21.7208579,4.34702266 C21.4754972,3.42318148 20.7526138,2.695606 19.8347617,2.44871939 C18.3601523,2.05102254 12.9514758,2.00582971 11.7412731,2.00069417 L11.2586745,2.00069417 C10.0484782,2.00582971 4.63982784,2.05102254 3.1651847,2.44871939 C2.24733258,2.69564415 1.52444917,3.42318148 1.27908843,4.34702266 C1.13528699,4.8871825 1.03787311,5.6166398 0.971883065,6.35705906 L0.935940187,6.80119936 C0.849509687,7.98147236 0.835862766,9.09850021 0.833707989,9.42182076 L0.833707989,9.60850463 C0.835862766,9.93182862 0.849509687,11.0488681 0.935940187,12.2291504 L0.971883065,12.6732941 C1.03787311,13.4137188 1.13528699,14.14318 1.27908843,14.6833399 C1.52444917,15.6071429 2.24733258,16.3044298 3.1651847,16.5513164 C4.63982784,16.9490132 10.0484782,16.994206 11.2586745,16.9993416 L11.7412718,16.9993416 C12.9514681,16.994206 18.3601185,16.9490132 19.8347617,16.5513164 Z M9.31812413,12.6871517 L9.31812413,6.34317269 L14.8938631,9.51523849 L9.31812413,12.6871517 Z" id="youtube"></path>
        </g>
        <g id="Icon" transform="translate(123.000000, 2.000000)" fill="#FA6400" fill-rule="nonzero">
            <path d="M17.7499583,19.499994 L17.7499583,1.56004963 C17.7499583,0.420030069 16.8299699,-0.499958277 15.6999449,-0.499958277 L2.30001342,-0.499958277 C1.16998835,-0.499958277 0.25,0.420030069 0.25,1.56004963 L0.25,15.0799911 C0.25,16.2200107 1.16998835,17.1399991 2.30001342,17.1399991 L13.6399751,17.1399991 L13.1099623,15.2899897 C16.0363622,18.0106253 15.2306619,17.2736657 17.7499583,19.499994 Z M11.8399763,12.5600081 C11.8399763,12.5600081 11.4799842,12.1300165 11.179959,11.7499973 C12.4899611,11.3800107 12.9899522,10.5600053 12.9899522,10.5600053 C12.5799877,10.8300089 12.189974,11.0200185 11.8399763,11.1500231 C9.68544046,12.0549434 7.28787079,11.7452289 5.59998572,10.8000255 C5.57969158,10.7864452 5.33711556,10.6529692 5.18998303,10.5500108 C5.18998303,10.5500108 5.66998525,11.3500272 6.93997123,11.7300083 C6.63998415,12.1100275 6.26999755,12.5600081 6.26999755,12.5600081 C4.0599961,12.4900086 3.22000177,11.0400075 3.22000177,11.0400075 C3.22000177,8.01517941 4.49075143,5.52862484 4.64478169,5.23833477 L4.66000841,5.21001956 L4.66000841,5.21001956 C6.0999769,4.1300432 7.46998401,4.15994367 7.46998401,4.15994367 L7.56996698,4.28003674 C5.76996822,4.80001688 4.94000652,5.5900388 4.94000652,5.5900388 C4.94000652,5.5900388 5.15999959,5.47002871 5.52998619,5.30004621 C7.83421043,4.28789499 10.6245404,4.28812387 12.9999849,5.5900388 C12.9999849,5.5900388 12.2099629,4.84003296 10.5099853,4.32001467 L10.6499844,4.15994367 C10.6499844,4.15994367 12.0199533,4.1300432 13.45996,5.21001956 L13.4751867,5.23833477 C13.6292169,5.52862484 14.8999666,8.01517941 14.8999666,11.0400075 C14.8999666,11.0400075 14.0499778,12.4900086 11.8399763,12.5600081 Z M10.8399558,10.1100247 C11.4099847,10.1100247 11.8599653,9.61003349 11.8599653,9.0000267 C11.8599653,8.39002874 11.4099847,7.89002874 10.8399558,7.89002874 C10.2699651,7.89002874 9.81998451,8.39002874 9.81998451,9.0000267 C9.81998451,9.61003349 10.2799596,10.1100247 10.8399558,10.1100247 Z M7.1899859,10.1100247 C7.7599766,10.1100247 8.20999537,9.61003349 8.20999537,9.0000267 C8.21998985,8.39002874 7.7599766,7.89002874 7.1899859,7.89002874 C6.61999519,7.89002874 6.16997643,8.39002874 6.16997643,9.0000267 C6.16997643,9.61003349 6.62998967,10.1100247 7.1899859,10.1100247 Z" id="discord"></path>
        </g>
        <g id="Icon" transform="translate(147.000000, 2.000000)" fill="#FA6400" fill-rule="nonzero">
            <path d="M12.6132518,18.1875124 C14.0156074,18.1210987 15.2577843,17.8007793 16.281227,16.7734457 C17.3046316,15.750003 17.6249509,14.5078261 17.6952556,13.1054704 C17.7325529,12.4485117 17.7528968,11.1959337 17.7562875,9.88920836 L17.7562875,9.10300729 C17.7528968,7.79628199 17.7325529,6.54370391 17.6952556,5.88674525 C17.6288801,4.48438958 17.3085607,3.24221267 16.281227,2.21876998 C15.2577843,1.19536544 14.0156074,0.875046074 12.6132518,0.804741371 C11.9562931,0.767444125 10.7029032,0.747100172 9.39529232,0.743709513 L8.60855694,0.743709513 C7.30094603,0.747100172 6.04755615,0.767444125 5.39059749,0.804741371 C3.99217095,0.871116946 2.74999404,1.19143631 1.72266037,2.214879 C0.695326697,3.23832169 0.378898313,4.4804986 0.30859361,5.88285426 C0.271313703,6.53981293 0.250979208,7.79319493 0.247590126,9.10079724 L0.247590126,9.88752743 C0.250979208,11.1951297 0.271313703,12.4485117 0.30859361,13.1054704 C0.375007331,14.5078261 0.695326697,15.750003 1.72266037,16.7734457 C2.74999404,17.7968884 3.98827997,18.1171696 5.39059749,18.1875124 C6.83590654,18.2695282 11.1679427,18.2695282 12.6132518,18.1875124 Z M9.00387012,16.6718605 C7.73045092,16.6718605 4.99219145,16.7734457 3.84374143,16.3202989 C3.07813352,16.0156197 2.48826828,15.4257926 2.17969816,14.6562556 C1.72266037,13.5039146 1.8281365,10.7695461 1.8281365,9.4961269 C1.8281365,8.22266955 1.72655135,5.48441008 2.17969816,4.33596006 C2.4843773,3.57035215 3.07420439,2.98048692 3.84374143,2.67191679 C4.99608243,2.214879 7.73045092,2.32035513 9.00387012,2.32035513 C10.2773275,2.32035513 13.0155869,2.21876998 14.164037,2.67191679 C14.9296449,2.97659593 15.5195101,3.56642302 15.8280802,4.33596006 C16.285118,5.48830107 16.1796419,8.22266955 16.1796419,9.4961269 C16.1796419,10.7695461 16.285118,13.5078056 15.8280802,14.6562556 C15.5234011,15.4218635 14.933574,16.0117287 14.164037,16.3202989 C13.011696,16.7773367 10.2773275,16.6718605 9.00387012,16.6718605 Z M13.6757569,5.87110502 C14.2538729,5.87110502 14.7226217,5.40628527 14.7226217,4.82424015 C14.7226217,4.24612416 14.2538729,3.77737528 13.6757569,3.77737528 C13.0976409,3.77737528 12.628892,4.24612416 12.628892,4.82424015 C12.628892,5.40235614 13.0937117,5.87110502 13.6757569,5.87110502 Z M9.00387012,13.9843746 C11.4882621,13.9843746 13.4921559,11.9804807 13.4921559,9.4961269 C13.4921559,7.01173493 11.4882621,5.00784109 9.00387012,5.00784109 C6.5195163,5.00784109 4.51562246,7.01173493 4.51562246,9.4961269 C4.51562246,11.9804807 6.5195163,13.9843746 9.00387012,13.9843746 Z M9.00387012,12.4140582 C7.39842046,12.4140582 6.08593884,11.1054675 6.08593884,9.4961269 C6.08593884,7.88674811 7.39452947,6.57815748 9.00387012,6.57815748 C10.6132489,6.57815748 11.9218395,7.88674811 11.9218395,9.4961269 C11.9218395,11.1054675 10.6093579,12.4140582 9.00387012,12.4140582 Z" id="instagram"></path>
        </g>
    </g>
</svg>