<svg width="24" height="24" viewBox="0 0 24 24" fill="none" xmlns="http://www.w3.org/2000/svg">
<path fill-rule="evenodd" clip-rule="evenodd" d="M12 3.25C12.4142 3.25 12.75 3.58579 12.75 4V14.1893L14.9697 11.9697C15.2626 11.6768 15.7374 11.6768 16.0303 11.9697C16.3232 12.2626 16.3232 12.7374 16.0303 13.0303L12.5303 16.5303C12.2374 16.8232 11.7626 16.8232 11.4697 16.5303L7.96967 13.0303C7.67678 12.7374 7.67678 12.2626 7.96967 11.9697C8.26256 11.6768 8.73744 11.6768 9.03033 11.9697L11.25 14.1893V4C11.25 3.58579 11.5858 3.25 12 3.25ZM5.25 20C5.25 19.5858 5.58579 19.25 6 19.25H18C18.4142 19.25 18.75 19.5858 18.75 20C18.75 20.4142 18.4142 20.75 18 20.75H6C5.58579 20.75 5.25 20.4142 5.25 20Z" fill="white"/>
</svg>
