<svg width="72" height="24" viewBox="0 0 72 24" fill="none" xmlns="http://www.w3.org/2000/svg">
<path fill-rule="evenodd" clip-rule="evenodd" d="M11.9697 5.46967C12.2626 5.17678 12.7374 5.17678 13.0303 5.46967L19.0303 11.4697C19.3232 11.7626 19.3232 12.2374 19.0303 12.5303L13.0303 18.5303C12.7374 18.8232 12.2626 18.8232 11.9697 18.5303C11.6768 18.2374 11.6768 17.7626 11.9697 17.4697L16.6893 12.75H6C5.58579 12.75 5.25 12.4142 5.25 12C5.25 11.5858 5.58579 11.25 6 11.25H16.6893L11.9697 6.53033C11.6768 6.23744 11.6768 5.76256 11.9697 5.46967Z" fill="#29A0D3"/>
<path fill-rule="evenodd" clip-rule="evenodd" d="M35.9697 5.46967C36.2626 5.17678 36.7374 5.17678 37.0303 5.46967L43.0303 11.4697C43.3232 11.7626 43.3232 12.2374 43.0303 12.5303L37.0303 18.5303C36.7374 18.8232 36.2626 18.8232 35.9697 18.5303C35.6768 18.2374 35.6768 17.7626 35.9697 17.4697L40.6893 12.75H30C29.5858 12.75 29.25 12.4142 29.25 12C29.25 11.5858 29.5858 11.25 30 11.25H40.6893L35.9697 6.53033C35.6768 6.23744 35.6768 5.76256 35.9697 5.46967Z" fill="#0076A4"/>
<path fill-rule="evenodd" clip-rule="evenodd" d="M59.9697 5.46967C60.2626 5.17678 60.7374 5.17678 61.0303 5.46967L67.0303 11.4697C67.3232 11.7626 67.3232 12.2374 67.0303 12.5303L61.0303 18.5303C60.7374 18.8232 60.2626 18.8232 59.9697 18.5303C59.6768 18.2374 59.6768 17.7626 59.9697 17.4697L64.6893 12.75H54C53.5858 12.75 53.25 12.4142 53.25 12C53.25 11.5858 53.5858 11.25 54 11.25H64.6893L59.9697 6.53033C59.6768 6.23744 59.6768 5.76256 59.9697 5.46967Z" fill="#9B9B9B"/>
</svg>
