<svg width="24" height="24" viewBox="0 0 24 24" fill="none" xmlns="http://www.w3.org/2000/svg">
<path d="M14.3662 2.34381C13.3652 2.72588 12.5056 3.40615 11.904 4.29256L11.7595 4.51747C11.252 5.35405 10.9884 6.31805 11.0016 7.30011L11.0015 7.532L10.9796 7.53124C9.60397 7.46236 8.25491 7.1073 7.01971 6.48557C5.55992 5.75081 4.30451 4.66644 3.36527 3.32902C3.03025 2.85197 2.3029 2.92276 2.06615 3.45546L1.96292 3.70496C1.94433 3.75275 1.92512 3.80359 1.9054 3.85738L1.78181 4.21499C1.71782 4.41088 1.6512 4.63187 1.58489 4.87565C1.00018 7.02534 0.897952 9.28714 1.59552 11.4309L1.6924 11.7131C2.43517 13.7676 3.89031 15.4936 6.14031 16.7849L6.1915 16.813L5.99486 16.9138C4.38179 17.7019 2.59109 18.0827 0.781304 18.0107C-0.00798374 17.9793 -0.303235 19.0321 0.387273 19.4157C10.2652 24.9034 21.5015 18.9228 21.5015 7.26006L21.4904 6.93382L21.4645 6.671L21.6135 6.48696C21.894 6.12099 22.1757 5.66781 22.4605 5.14161C22.7103 4.68005 22.948 4.18881 23.1668 3.69799L23.3806 3.20326L23.4484 3.03725C23.7127 2.37285 22.9857 1.75063 22.37 2.11432L21.9429 2.35883C21.613 2.54393 21.2699 2.72897 20.9324 2.90103L20.4917 3.1193L20.2748 3.22122L20.0051 3.34153L19.8135 3.42C19.1599 2.80715 18.3667 2.37313 17.5006 2.15641C16.5478 1.91803 15.5491 1.95313 14.6182 2.2549L14.3662 2.34381Z" fill="white"/>
</svg>
