<svg width="24" height="24" viewBox="0 0 24 24" fill="none" xmlns="http://www.w3.org/2000/svg">
<path fill-rule="evenodd" clip-rule="evenodd" d="M6.22794 6.22705C6.52083 5.93416 6.99571 5.93416 7.2886 6.22706L12.0009 10.9394L16.7132 6.22706C17.0061 5.93416 17.4809 5.93416 17.7738 6.22705C18.0667 6.51995 18.0667 6.99482 17.7738 7.28771L13.0616 12L17.7738 16.7123C18.0667 17.0052 18.0667 17.4801 17.7738 17.773C17.4809 18.0658 17.0061 18.0658 16.7132 17.773L12.0009 13.0607L7.2886 17.773C6.9957 18.0658 6.52083 18.0658 6.22794 17.773C5.93505 17.4801 5.93505 17.0052 6.22794 16.7123L10.9402 12L6.22794 7.28771C5.93505 6.99482 5.93505 6.51995 6.22794 6.22705Z" fill="white"/>
</svg>
