<svg width="40" height="40" viewBox="0 0 40 40" fill="none" xmlns="http://www.w3.org/2000/svg">
<path fill-rule="evenodd" clip-rule="evenodd" d="M10.3799 10.3784C10.8681 9.89023 11.6595 9.89023 12.1477 10.3784L20.0015 18.2322L27.8553 10.3784C28.3434 9.89023 29.1349 9.89023 29.6231 10.3784C30.1112 10.8665 30.1112 11.658 29.6231 12.1461L21.7693 20L29.6231 27.8538C30.1112 28.3419 30.1112 29.1334 29.6231 29.6216C29.1349 30.1097 28.3434 30.1097 27.8553 29.6216L20.0015 21.7678L12.1477 29.6216C11.6595 30.1097 10.8681 30.1097 10.3799 29.6215C9.89175 29.1334 9.89176 28.3419 10.3799 27.8538L18.2337 20L10.3799 12.1462C9.89175 11.658 9.89176 10.8665 10.3799 10.3784Z" fill="black"/>
</svg>
