<?xml version="1.0" encoding="UTF-8" standalone="no"?>
<!DOCTYPE svg PUBLIC "-//W3C//DTD SVG 1.1//EN" "http://www.w3.org/Graphics/SVG/1.1/DTD/svg11.dtd">
<svg width="100%" height="100%" viewBox="0 0 663 662" version="1.1" xmlns="http://www.w3.org/2000/svg" xmlns:xlink="http://www.w3.org/1999/xlink" xml:space="preserve" xmlns:serif="http://www.serif.com/" style="fill-rule:evenodd;clip-rule:evenodd;stroke-linejoin:round;stroke-miterlimit:2;">
    <g id="eihp" transform="matrix(1.43265,0,0,1.4301,-2774.17,-33.6063)">
        <rect x="1936.39" y="23.499" width="462.499" height="462.499" style="fill:none;"/>
        <g transform="matrix(0.698007,0,0,0.699254,1579.8,-184.695)">
            <g transform="matrix(-0.67313,0.739524,-0.739524,-0.67313,861,1078.65)">
                <path d="M-150.601,500.661L-124.386,507.456L-118.652,485.336L-143.644,478.858L-146.733,487.931L-158.538,484.871L-153.052,463.707L-91.796,479.586L-94.208,488.891L-102.863,488.35L-117.267,543.917L-109.438,547.649L-111.864,557.008L-173.014,541.157L-167.515,519.94L-155.604,523.028L-157.311,532.459L-132.532,538.882L-127.487,519.42L-153.702,512.625L-150.601,500.661Z" style="fill-rule:nonzero;"/>
                <path d="M-187.168,531.544L-190.644,540.566L-213.607,531.717L-186.845,462.263L-193.479,457.94L-190.023,448.97L-160.601,460.307L-164.057,469.277L-171.877,468.03L-194.571,526.925L-187.168,531.544Z" style="fill-rule:nonzero;"/>
                <path d="M-223.937,443.773L-231.526,441.511L-249.176,473.869L-242.443,479.419L-247.072,487.907L-268.677,476.122L-245.607,433.83L-251.569,428.7L-246.966,420.261L-219.333,435.334L-223.937,443.773ZM-275.49,488.612L-261.408,496.293L-267.169,506.854L-281.251,499.173L-275.49,488.612Z" style="fill-rule:nonzero;"/>
                <path d="M-256.646,426.655L-263.896,423.605L-284.99,453.831L-278.951,460.055L-284.484,467.983L-303.719,454.559L-299.432,447.168C-302.793,448.529 -306.142,449.072 -309.479,448.798C-312.815,448.524 -315.955,447.36 -318.898,445.306C-323.823,441.868 -326.587,437.639 -327.192,432.618C-327.796,427.597 -325.792,421.782 -321.181,415.176L-306.374,393.959L-311.738,388.206L-306.236,380.323L-281.1,397.865L-286.602,405.749L-293.176,403.17L-307.951,424.342C-310.236,427.615 -311.194,430.396 -310.827,432.685C-310.459,434.973 -308.939,437.05 -306.266,438.916C-304.524,440.131 -302.716,440.868 -300.842,441.127C-298.968,441.385 -297.115,441.193 -295.283,440.552L-277.049,414.425L-281.422,409.364L-275.92,401.481L-251.145,418.772L-256.646,426.655Z" style="fill-rule:nonzero;"/>
                <path d="M-337.695,366.348C-339.802,364.419 -342.052,363.487 -344.447,363.554C-346.842,363.62 -348.979,364.68 -350.859,366.732L-361.553,356.938L-361.452,356.584C-357.504,352.056 -352.449,349.87 -346.286,350.027C-340.123,350.183 -334.489,352.599 -329.385,357.274C-322.849,363.259 -319.704,369.938 -319.951,377.31C-320.197,384.682 -323.288,391.609 -329.224,398.091L-330.337,399.306C-336.248,405.761 -342.924,409.404 -350.365,410.237C-357.807,411.069 -364.89,408.406 -371.615,402.248C-375.153,399.008 -377.844,395.575 -379.688,391.949C-381.532,388.324 -382.508,384.699 -382.615,381.075L-372.056,369.219L-362.454,378.012L-366.78,386.639C-366.656,387.696 -366.316,388.789 -365.761,389.918C-365.206,391.047 -364.375,392.119 -363.267,393.133C-359.918,396.2 -356.442,397.149 -352.839,395.979C-349.236,394.81 -345.678,392.308 -342.166,388.473L-341.053,387.258C-337.467,383.342 -335.214,379.607 -334.294,376.055C-333.375,372.502 -334.508,369.267 -337.695,366.348Z" style="fill-rule:nonzero;"/>
                <path d="M-360.907,341.859L-367.208,337.151L-394.967,361.4L-390.607,368.897L-397.888,375.257L-413.319,357.592L-407.252,351.345C-410.485,352.32 -413.472,352.547 -416.213,352.025C-418.955,351.502 -421.278,350.151 -423.181,347.973C-423.735,347.338 -424.271,346.627 -424.789,345.84C-425.307,345.052 -425.702,344.364 -425.973,343.774L-413.849,335.444L-409.636,340.517C-408.094,342.282 -406.472,343.442 -404.771,343.998C-403.07,344.555 -401.32,344.582 -399.521,344.08L-377.76,325.071L-381.579,318.195L-374.339,311.871L-353.668,335.535L-360.907,341.859Z" style="fill-rule:nonzero;"/>
                <path d="M-398.828,277.714C-393.892,284.719 -392.193,291.899 -393.73,299.254C-395.267,306.609 -399.494,312.723 -406.409,317.596L-408.205,318.861C-415.42,323.945 -422.76,326.149 -430.225,325.473C-437.689,324.797 -443.759,321.11 -448.433,314.413C-453.052,307.857 -454.662,301.376 -453.263,294.969C-451.864,288.563 -447.796,282.987 -441.06,278.241L-433.921,273.21L-413.481,302.218L-413.149,302.118C-410.114,299.621 -408.234,296.695 -407.508,293.339C-406.782,289.982 -407.568,286.673 -409.867,283.41C-411.913,280.506 -413.903,278.301 -415.837,276.797C-417.771,275.292 -420.168,273.845 -423.028,272.456L-417.445,263.214C-414.445,264.101 -411.283,265.76 -407.959,268.188C-404.635,270.617 -401.591,273.793 -398.828,277.714ZM-438.329,307.294C-436.621,309.719 -434.343,310.981 -431.495,311.08C-428.648,311.18 -425.596,310.329 -422.341,308.528L-422.211,308.235L-433.538,292.159L-434.706,292.982C-437.49,294.943 -439.254,297.161 -439.998,299.633C-440.742,302.106 -440.185,304.66 -438.329,307.294Z" style="fill-rule:nonzero;"/>
                <path d="M-460.873,276.053L-469.316,280.763L-481.305,259.272L-439.233,235.803L-441.54,228.284L-433.145,223.601L-417.811,251.089L-426.206,255.772L-431.419,249.811L-463.608,267.767L-460.873,276.053ZM-497.963,276.993L-506.232,262.169L-505.998,261.913L-486.139,268.195L-479.877,279.421L-497.963,276.993Z" style="fill-rule:nonzero;"/>
                <path d="M-484.632,177.989C-476.515,174.432 -469.231,173.399 -462.78,174.89C-456.329,176.381 -451.604,180.548 -448.606,187.391C-447.209,190.577 -446.659,193.635 -446.955,196.563C-447.251,199.492 -448.304,202.312 -450.114,205.025L-442.96,203.149L-437.403,215.827L-505.526,245.681L-503.618,254.141L-512.473,258.022L-522.307,235.582L-492.472,222.508C-495.343,221.887 -497.847,220.735 -499.983,219.052C-502.12,217.37 -503.813,215.103 -505.063,212.252C-508.091,205.342 -507.79,198.933 -504.162,193.025C-500.534,187.117 -494.376,182.259 -485.689,178.452L-484.632,177.989ZM-479.273,193.093C-484.572,195.416 -488.432,198.037 -490.851,200.956C-493.27,203.875 -493.656,207.213 -492.01,210.97C-491.011,213.251 -489.687,214.97 -488.041,216.128C-486.394,217.285 -484.483,217.927 -482.308,218.054L-459.316,207.977C-458.035,206.337 -457.308,204.529 -457.135,202.553C-456.961,200.578 -457.381,198.433 -458.395,196.119C-460.056,192.329 -462.551,190.263 -465.879,189.922C-469.207,189.582 -473.319,190.484 -478.216,192.63L-479.273,193.093Z" style="fill-rule:nonzero;"/>
                <path d="M-532.339,184.899L-541.559,187.808L-548.964,164.34L-477.982,141.94L-478.742,134.058L-469.574,131.165L-460.086,161.234L-469.253,164.127L-473.155,157.237L-533.346,176.231L-532.339,184.899Z" style="fill-rule:nonzero;"/>
                <path d="M-476.095,98.185C-474.333,106.571 -475.612,113.838 -479.934,119.985C-484.255,126.132 -490.555,130.075 -498.834,131.815L-500.984,132.267C-509.621,134.082 -517.234,133.203 -523.822,129.63C-530.411,126.056 -534.527,120.269 -536.171,112.27C-537.821,104.421 -536.736,97.832 -532.916,92.501C-529.097,87.171 -523.156,83.658 -515.092,81.963L-506.545,80.167L-499.246,114.894L-498.901,114.934C-495.127,113.841 -492.242,111.897 -490.248,109.102C-488.253,106.306 -487.666,102.955 -488.487,99.049C-489.218,95.573 -490.174,92.761 -491.355,90.614C-492.535,88.468 -494.165,86.191 -496.242,83.783L-487.459,77.503C-485.054,79.505 -482.806,82.279 -480.714,85.824C-478.622,89.37 -477.082,93.49 -476.095,98.185ZM-524.076,109.728C-523.466,112.631 -521.873,114.691 -519.297,115.908C-516.721,117.126 -513.581,117.551 -509.879,117.185L-509.644,116.967L-513.689,97.722L-515.086,98.016C-518.419,98.716 -520.917,100.055 -522.578,102.032C-524.239,104.009 -524.739,106.574 -524.076,109.728Z" style="fill-rule:nonzero;"/>
            </g>
            <g transform="matrix(-0.521154,0.572558,-0.572558,-0.521154,861,1033.65)">
                <path d="M-109.189,484.219L-115.991,483.745L-130.974,535.987L-124.272,539.385L-126.567,547.387L-146.891,541.558L-138.858,513.551C-141.056,515.381 -143.457,516.603 -146.061,517.218C-148.665,517.832 -151.331,517.748 -154.059,516.966C-159.212,515.488 -162.762,512.625 -164.709,508.376C-166.656,504.127 -166.608,498.441 -164.565,491.317L-158.867,471.448L-164.841,468.258L-162.559,460.302L-137.188,467.578L-139.47,475.535L-145.59,475.256L-151.315,495.216C-152.41,499.035 -152.512,501.934 -151.619,503.912C-150.727,505.89 -148.947,507.262 -146.279,508.027C-144.43,508.557 -142.72,508.687 -141.15,508.415C-139.58,508.144 -138.151,507.537 -136.863,506.594L-129.222,479.95L-134.56,476.943L-132.278,468.986L-106.907,476.263L-109.189,484.219Z" style="fill-rule:nonzero;"/>
                <path d="M-176.378,482.691C-179.337,489.726 -183.729,494.66 -189.557,497.494C-195.384,500.329 -201.771,500.285 -208.719,497.364C-215.695,494.43 -220.211,489.896 -222.267,483.764C-224.323,477.631 -223.866,471.033 -220.895,463.969L-220.51,463.053C-217.527,455.961 -213.128,451.012 -207.313,448.207C-201.498,445.401 -195.131,445.453 -188.213,448.363C-181.208,451.309 -176.674,455.841 -174.612,461.959C-172.55,468.078 -173.01,474.683 -175.993,481.776L-176.378,482.691ZM-188.725,476.421C-186.915,472.119 -186.22,468.35 -186.637,465.112C-187.054,461.875 -188.949,459.547 -192.321,458.129C-195.605,456.748 -198.561,457.044 -201.187,459.019C-203.813,460.993 -206.025,464.117 -207.822,468.39L-208.207,469.305C-209.968,473.491 -210.634,477.23 -210.206,480.523C-209.777,483.816 -207.906,486.16 -204.593,487.553C-201.279,488.947 -198.31,488.639 -195.686,486.63C-193.062,484.62 -190.87,481.523 -189.11,477.337L-188.725,476.421Z" style="fill-rule:nonzero;"/>
                <path d="M-237.696,475.806L-242.023,482.918L-259.278,472.42L-256.247,466.346C-258.926,467.595 -261.672,468.149 -264.483,468.007C-267.294,467.866 -270.087,466.951 -272.862,465.263C-275.664,463.558 -277.684,461.48 -278.924,459.028C-280.164,456.576 -280.533,453.786 -280.032,450.657C-282.805,452.182 -285.671,452.948 -288.629,452.957C-291.587,452.966 -294.521,452.085 -297.431,450.315C-301.741,447.693 -304.237,444.135 -304.918,439.642C-305.598,435.149 -304.087,429.859 -300.383,423.77L-289.319,405.586L-294.279,400.907L-289.977,393.836L-267.388,407.579L-271.691,414.65L-277.52,412.765L-288.608,430.989C-290.624,434.303 -291.486,436.934 -291.195,438.883C-290.904,440.832 -289.695,442.453 -287.567,443.748C-285.896,444.764 -284.223,445.275 -282.547,445.28C-280.87,445.285 -279.267,444.848 -277.736,443.971C-277.425,443.459 -277.172,443.013 -276.978,442.633C-276.783,442.253 -276.571,441.874 -276.342,441.497L-263.902,421.05L-267.933,416.937L-263.63,409.865L-242.335,422.821L-246.637,429.893L-252.143,428.204L-263.231,446.429C-265.197,449.662 -266.048,452.273 -265.781,454.262C-265.515,456.251 -264.304,457.901 -262.149,459.212C-260.56,460.179 -258.981,460.724 -257.414,460.847C-255.846,460.971 -254.336,460.718 -252.883,460.088L-238.525,436.489L-242.879,432.179L-238.577,425.108L-216.028,438.826L-220.331,445.898L-226.766,443.644L-243.262,470.758L-237.696,475.806Z" style="fill-rule:nonzero;"/>
                <path d="M-346.401,376.97C-341.534,371.092 -336.331,367.478 -330.792,366.128C-325.253,364.778 -320.006,366.154 -315.051,370.257C-312.743,372.167 -311.137,374.306 -310.231,376.673C-309.325,379.04 -309.043,381.617 -309.385,384.404L-304.608,380.192L-295.427,387.793L-336.27,437.125L-331.528,442.893L-336.837,449.305L-353.086,435.852L-335.198,414.247C-337.647,414.88 -340.019,414.964 -342.314,414.497C-344.609,414.03 -346.788,412.941 -348.853,411.232C-353.856,407.089 -356.106,402.044 -355.602,396.095C-355.099,390.146 -352.242,384.026 -347.034,377.735L-346.401,376.97ZM-336.432,386.513C-339.609,390.351 -341.563,393.861 -342.294,397.043C-343.025,400.224 -342.03,402.942 -339.309,405.194C-337.658,406.561 -335.974,407.371 -334.26,407.624C-332.545,407.877 -330.827,407.632 -329.105,406.887L-315.32,390.237C-314.97,388.48 -315.111,386.807 -315.742,385.221C-316.373,383.634 -317.526,382.147 -319.202,380.759C-321.947,378.487 -324.665,377.864 -327.357,378.89C-330.048,379.916 -332.862,382.202 -335.798,385.748L-336.432,386.513Z" style="fill-rule:nonzero;"/>
                <path d="M-341.992,358.793L-347.637,355.05L-370.328,377.241L-366.217,383.475L-372.169,389.295L-386.29,374.855L-381.377,369.19C-384.108,370.186 -386.665,370.525 -389.048,370.208C-391.43,369.892 -393.492,368.843 -395.234,367.062C-395.741,366.544 -396.236,365.958 -396.72,365.306C-397.203,364.654 -397.576,364.081 -397.838,363.588L-387.817,355.839L-383.95,359.997C-382.539,361.44 -381.089,362.359 -379.599,362.755C-378.109,363.15 -376.604,363.089 -375.081,362.571L-357.293,345.176L-360.909,339.449L-354.991,333.662L-336.074,353.005L-341.992,358.793Z" style="fill-rule:nonzero;"/>
                <path d="M-378.028,305.624C-373.363,311.341 -371.467,317.405 -372.341,323.816C-373.214,330.226 -376.473,335.735 -382.116,340.34L-383.582,341.536C-389.47,346.341 -395.64,348.68 -402.093,348.553C-408.546,348.426 -413.983,345.629 -418.405,340.161C-422.771,334.81 -424.548,329.341 -423.736,323.753C-422.923,318.165 -419.768,313.129 -414.271,308.643L-408.444,303.888L-389.125,327.561L-388.846,327.455C-386.391,325.127 -384.954,322.499 -384.534,319.572C-384.114,316.645 -384.991,313.85 -387.164,311.187C-389.098,308.817 -390.941,307.045 -392.694,305.87C-394.446,304.695 -396.593,303.598 -399.134,302.578L-394.9,294.3C-392.27,294.88 -389.453,296.113 -386.45,297.997C-383.447,299.881 -380.64,302.423 -378.028,305.624ZM-410.16,333.432C-408.545,335.411 -406.511,336.356 -404.059,336.269C-401.608,336.181 -399.038,335.264 -396.352,333.519L-396.258,333.26L-406.964,320.14L-407.917,320.918C-410.189,322.772 -411.57,324.784 -412.058,326.953C-412.547,329.122 -411.914,331.282 -410.16,333.432Z" style="fill-rule:nonzero;"/>
                <path d="M-445.851,287.836L-453.059,292.001L-463.093,274.636L-458.263,271.081C-460.932,270.875 -463.313,270.157 -465.408,268.927C-467.503,267.697 -469.252,265.867 -470.656,263.437C-473.827,257.949 -474.145,252.451 -471.609,246.944C-469.074,241.436 -464.311,236.663 -457.322,232.624L-456.461,232.128C-449.909,228.341 -443.764,226.812 -438.026,227.539C-432.289,228.266 -427.85,231.347 -424.711,236.78C-423.37,239.101 -422.609,241.411 -422.427,243.71C-422.246,246.009 -422.618,248.281 -423.542,250.527L-410.723,243.12L-412.831,236.635L-405.623,232.47L-392.063,255.938L-399.271,260.103L-403.836,255.038L-448.314,280.737L-445.851,287.836ZM-450.412,244.583C-454.589,246.997 -457.572,249.65 -459.362,252.541C-461.151,255.432 -461.217,258.311 -459.561,261.178C-458.519,262.98 -457.263,264.303 -455.793,265.146C-454.322,265.99 -452.691,266.386 -450.9,266.335L-431.487,255.118C-430.657,253.655 -430.281,252.099 -430.359,250.451C-430.438,248.803 -431.013,247.05 -432.086,245.194C-433.758,242.299 -436.118,240.831 -439.165,240.789C-442.212,240.747 -445.674,241.846 -449.551,244.086L-450.412,244.583Z" style="fill-rule:nonzero;"/>
                <path d="M-451.039,184.535C-451.672,185.219 -452.345,185.869 -453.059,186.484C-453.772,187.1 -454.518,187.66 -455.296,188.166C-452.911,188.926 -450.718,190.155 -448.719,191.853C-446.72,193.551 -445.122,195.79 -443.928,198.572C-441.948,203.178 -441.63,207.375 -442.973,211.16C-444.315,214.946 -447.145,217.766 -451.462,219.621C-455.866,221.513 -460.029,221.208 -463.952,218.706C-467.876,216.204 -471.306,211.535 -474.244,204.697L-477.025,198.222L-481.632,200.201C-483.892,201.171 -485.365,202.576 -486.051,204.415C-486.736,206.254 -486.532,208.449 -485.436,210.998C-484.814,212.447 -484.093,213.665 -483.275,214.652C-482.456,215.638 -481.666,216.38 -480.903,216.876L-475.507,215.536L-471.4,225.097L-481.849,229.535C-484.409,227.889 -486.869,225.797 -489.23,223.259C-491.59,220.721 -493.529,217.684 -495.048,214.149C-497.55,208.326 -498.155,202.983 -496.863,198.121C-495.571,193.259 -492.289,189.695 -487.016,187.43L-467.589,179.084C-466.865,178.773 -466.187,178.473 -465.556,178.185C-464.925,177.896 -464.338,177.584 -463.796,177.249L-464.936,173.157L-457.331,169.889L-451.039,184.535ZM-454.79,199.171C-455.611,197.259 -456.771,195.698 -458.269,194.488C-459.767,193.278 -461.325,192.506 -462.944,192.172L-470.115,195.253L-467.333,201.729C-466.176,204.423 -464.668,206.195 -462.81,207.044C-460.953,207.893 -459.14,207.938 -457.373,207.179C-455.779,206.495 -454.754,205.445 -454.298,204.031C-453.842,202.616 -454.006,200.996 -454.79,199.171Z" style="fill-rule:nonzero;"/>
                <path d="M-520.192,187.388L-528.092,190.013L-534.774,169.904L-473.951,149.696L-474.707,142.919L-466.852,140.309L-458.291,166.075L-466.147,168.685L-469.596,162.803L-521.172,179.939L-520.192,187.388Z" style="fill-rule:nonzero;"/>
                <path d="M-493.617,143.003C-501.039,144.776 -507.616,144.151 -513.347,141.127C-519.079,138.104 -522.82,132.927 -524.571,125.596C-526.33,118.235 -525.344,111.913 -521.614,106.629C-517.883,101.344 -512.292,97.812 -504.839,96.031L-503.873,95.801C-496.389,94.013 -489.797,94.634 -484.096,97.665C-478.395,100.696 -474.673,105.862 -472.929,113.161C-471.163,120.553 -472.138,126.889 -475.853,132.169C-479.568,137.45 -485.167,140.984 -492.651,142.772L-493.617,143.003ZM-495.86,129.339C-491.321,128.254 -487.869,126.587 -485.505,124.336C-483.141,122.085 -482.384,119.181 -483.234,115.623C-484.062,112.157 -486.049,109.949 -489.194,108.998C-492.339,108.048 -496.166,108.111 -500.674,109.188L-501.64,109.419C-506.057,110.474 -509.467,112.148 -511.869,114.44C-514.272,116.733 -515.055,119.627 -514.22,123.123C-513.385,126.62 -511.381,128.832 -508.209,129.76C-505.037,130.688 -501.243,130.625 -496.826,129.569L-495.86,129.339Z" style="fill-rule:nonzero;"/>
            </g>
        </g>
    </g>
</svg>
