<svg width="123" height="50" viewBox="0 0 123 50" fill="none" xmlns="http://www.w3.org/2000/svg">
<path d="M10 36V16.38H16.18C17.26 16.38 18.26 16.48 19.18 16.68C20.12 16.88 20.93 17.22 21.61 17.7C22.29 18.18 22.82 18.81 23.2 19.59C23.58 20.35 23.77 21.3 23.77 22.44C23.77 23.52 23.58 24.46 23.2 25.26C22.82 26.06 22.29 26.73 21.61 27.27C20.95 27.79 20.16 28.18 19.24 28.44C18.34 28.68 17.36 28.8 16.3 28.8H13.48V36H10ZM13.48 26.01H16.03C18.91 26.01 20.35 24.82 20.35 22.44C20.35 21.2 19.97 20.35 19.21 19.89C18.47 19.41 17.37 19.17 15.91 19.17H13.48V26.01Z" fill="#4A2518"/>
<path d="M30.521 36.36C29.281 36.36 28.411 35.99 27.911 35.25C27.411 34.51 27.161 33.5 27.161 32.22V14.82H30.611V32.4C30.611 32.82 30.691 33.12 30.851 33.3C31.011 33.46 31.181 33.54 31.361 33.54C31.441 33.54 31.511 33.54 31.571 33.54C31.651 33.54 31.761 33.52 31.901 33.48L32.351 36.06C31.891 36.26 31.281 36.36 30.521 36.36Z" fill="#4A2518"/>
<path d="M38.8755 36.36C37.5755 36.36 36.5255 35.97 35.7255 35.19C34.9255 34.39 34.5255 33.34 34.5255 32.04C34.5255 31.26 34.6855 30.57 35.0055 29.97C35.3455 29.35 35.8655 28.82 36.5655 28.38C37.2855 27.94 38.1855 27.57 39.2655 27.27C40.3655 26.97 41.6755 26.74 43.1955 26.58C43.1755 26.2 43.1155 25.84 43.0155 25.5C42.9355 25.14 42.7855 24.83 42.5655 24.57C42.3655 24.29 42.0955 24.08 41.7555 23.94C41.4155 23.78 40.9955 23.7 40.4955 23.7C39.7755 23.7 39.0655 23.84 38.3655 24.12C37.6855 24.4 37.0155 24.74 36.3555 25.14L35.0955 22.83C35.9155 22.31 36.8355 21.86 37.8555 21.48C38.8755 21.1 39.9755 20.91 41.1555 20.91C42.9955 20.91 44.3655 21.46 45.2655 22.56C46.1855 23.64 46.6455 25.21 46.6455 27.27V36H43.7955L43.5555 34.38H43.4355C42.7755 34.94 42.0655 35.41 41.3055 35.79C40.5655 36.17 39.7555 36.36 38.8755 36.36ZM39.9855 33.66C40.5855 33.66 41.1255 33.52 41.6055 33.24C42.1055 32.96 42.6355 32.56 43.1955 32.04V28.74C42.1955 28.86 41.3555 29.02 40.6755 29.22C39.9955 29.42 39.4455 29.65 39.0255 29.91C38.6055 30.15 38.3055 30.43 38.1255 30.75C37.9455 31.07 37.8555 31.41 37.8555 31.77C37.8555 32.43 38.0555 32.91 38.4555 33.21C38.8555 33.51 39.3655 33.66 39.9855 33.66Z" fill="#4A2518"/>
<path d="M50.7742 36V21.27H53.6242L53.8642 23.25H53.9842C54.6442 22.61 55.3542 22.06 56.1142 21.6C56.8942 21.14 57.7942 20.91 58.8142 20.91C60.3942 20.91 61.5442 21.42 62.2642 22.44C62.9842 23.44 63.3442 24.88 63.3442 26.76V36H59.8942V27.21C59.8942 25.99 59.7142 25.13 59.3542 24.63C58.9942 24.13 58.4042 23.88 57.5842 23.88C56.9442 23.88 56.3742 24.04 55.8742 24.36C55.3942 24.66 54.8442 25.11 54.2242 25.71V36H50.7742Z" fill="#4A2518"/>
<path d="M73.8613 36.36C72.8413 36.36 71.8913 36.19 71.0113 35.85C70.1313 35.49 69.3613 34.98 68.7013 34.32C68.0413 33.66 67.5213 32.86 67.1413 31.92C66.7813 30.96 66.6013 29.87 66.6013 28.65C66.6013 27.45 66.7913 26.37 67.1713 25.41C67.5513 24.45 68.0513 23.64 68.6713 22.98C69.3113 22.32 70.0413 21.81 70.8613 21.45C71.6813 21.09 72.5213 20.91 73.3813 20.91C74.3813 20.91 75.2613 21.08 76.0213 21.42C76.7813 21.76 77.4113 22.24 77.9113 22.86C78.4314 23.48 78.8213 24.22 79.0813 25.08C79.3413 25.94 79.4713 26.88 79.4713 27.9C79.4713 28.24 79.4513 28.56 79.4113 28.86C79.3913 29.16 79.3614 29.4 79.3214 29.58H69.9613C70.1213 30.9 70.5813 31.92 71.3413 32.64C72.1213 33.34 73.1113 33.69 74.3113 33.69C74.9513 33.69 75.5413 33.6 76.0813 33.42C76.6413 33.22 77.1913 32.95 77.7313 32.61L78.9013 34.77C78.2013 35.23 77.4213 35.61 76.5613 35.91C75.7013 36.21 74.8013 36.36 73.8613 36.36ZM69.9313 27.24H76.4713C76.4713 26.1 76.2213 25.21 75.7213 24.57C75.2413 23.91 74.4913 23.58 73.4713 23.58C72.5913 23.58 71.8213 23.89 71.1613 24.51C70.5013 25.13 70.0913 26.04 69.9313 27.24Z" fill="#4A2518"/>
<path d="M87.6635 36.36C86.8035 36.36 86.0735 36.23 85.4735 35.97C84.8935 35.71 84.4135 35.35 84.0335 34.89C83.6735 34.41 83.4035 33.85 83.2235 33.21C83.0635 32.55 82.9835 31.82 82.9835 31.02V24H80.8835V21.42L83.1635 21.27L83.5835 17.25H86.4635V21.27H90.2135V24H86.4635V31.02C86.4635 32.74 87.1535 33.6 88.5335 33.6C88.7935 33.6 89.0535 33.57 89.3135 33.51C89.5935 33.45 89.8435 33.37 90.0635 33.27L90.6635 35.82C90.2635 35.96 89.8035 36.08 89.2835 36.18C88.7835 36.3 88.2435 36.36 87.6635 36.36Z" fill="#4A2518"/>
<path d="M97.5192 36L103.099 25.89L97.8792 16.38H101.749L103.909 20.73C104.149 21.19 104.379 21.66 104.599 22.14C104.839 22.62 105.109 23.15 105.409 23.73H105.529C105.769 23.15 105.989 22.62 106.189 22.14C106.409 21.66 106.629 21.19 106.849 20.73L108.919 16.38H112.609L107.389 26.04L112.969 36H109.099L106.699 31.38C106.439 30.86 106.179 30.35 105.919 29.85C105.679 29.33 105.409 28.77 105.109 28.17H104.989C104.729 28.77 104.479 29.33 104.239 29.85C104.019 30.35 103.789 30.86 103.549 31.38L101.209 36H97.5192Z" fill="#4A2518"/>
</svg>
