<svg width="166" height="50" viewBox="0 0 166 50" fill="none" xmlns="http://www.w3.org/2000/svg">
<g clip-path="url(#clip0_1:46)">
<path d="M44.2915 5.7062C42.4579 3.87275 37.3969 5.71673 31.239 9.9928C29.2619 9.16892 27.1409 8.74548 24.9989 8.747C16.0232 8.747 8.74708 16.0233 8.74708 24.9988C8.74552 27.1409 9.1689 29.2619 9.99273 31.2391C5.71667 37.397 3.87269 42.458 5.70629 44.2915C7.54157 46.1268 12.6056 44.2906 18.7699 40.0092C20.744 40.8301 22.861 41.252 24.9989 41.2507C33.9745 41.2507 41.2506 33.9746 41.2506 24.9988C41.2519 22.861 40.8299 20.744 40.009 18.77C44.2904 12.6056 46.1268 7.54148 44.2915 5.7062ZM9.99715 40.0006C9.37501 39.3785 10.1894 37.4315 12.0097 34.7369C12.9357 35.9702 14.0318 37.0659 15.2654 37.9914C12.5653 39.8158 10.6204 40.6237 9.99715 40.0006ZM18.4824 35.617C14.9074 33.4146 12.4974 29.4972 12.4974 24.9988C12.4974 18.1056 18.1055 12.4975 24.9989 12.4975C29.4973 12.4975 33.4144 14.9073 35.6169 18.4825C33.4694 21.1951 30.6865 24.3117 27.499 27.4991C24.3115 30.6867 21.195 33.4695 18.4824 35.617ZM24.9989 37.5003C24.1512 37.5005 23.3056 37.4145 22.4753 37.2437C25.1985 35.0629 27.7976 32.7315 30.2604 30.2604C32.7316 27.7977 35.0629 25.1986 37.2435 22.4754C37.4144 23.3056 37.5004 24.1512 37.5002 24.9988C37.5002 31.8922 31.8921 37.5003 24.9989 37.5003ZM34.737 12.0098C37.4315 10.1896 39.3784 9.37508 40.0005 9.99722C40.6236 10.6203 39.8159 12.5651 37.9913 15.2653C37.0658 14.0318 35.9701 12.9357 34.737 12.0098Z" fill="#C2371E"/>
</g>
<path d="M57.49 36V16.38H63.67C64.75 16.38 65.75 16.48 66.67 16.68C67.61 16.88 68.42 17.22 69.1 17.7C69.78 18.18 70.31 18.81 70.69 19.59C71.07 20.35 71.26 21.3 71.26 22.44C71.26 23.52 71.07 24.46 70.69 25.26C70.31 26.06 69.78 26.73 69.1 27.27C68.44 27.79 67.65 28.18 66.73 28.44C65.83 28.68 64.85 28.8 63.79 28.8H60.97V36H57.49ZM60.97 26.01H63.52C66.4 26.01 67.84 24.82 67.84 22.44C67.84 21.2 67.46 20.35 66.7 19.89C65.96 19.41 64.86 19.17 63.4 19.17H60.97V26.01Z" fill="#4A2518"/>
<path d="M78.0109 36.36C76.7709 36.36 75.9009 35.99 75.4009 35.25C74.9009 34.51 74.6509 33.5 74.6509 32.22V14.82H78.1009V32.4C78.1009 32.82 78.1809 33.12 78.3409 33.3C78.5009 33.46 78.6709 33.54 78.8509 33.54C78.9309 33.54 79.0009 33.54 79.0609 33.54C79.1409 33.54 79.2509 33.52 79.3909 33.48L79.8409 36.06C79.3809 36.26 78.7709 36.36 78.0109 36.36Z" fill="#4A2518"/>
<path d="M86.3655 36.36C85.0655 36.36 84.0155 35.97 83.2155 35.19C82.4155 34.39 82.0155 33.34 82.0155 32.04C82.0155 31.26 82.1755 30.57 82.4955 29.97C82.8355 29.35 83.3555 28.82 84.0555 28.38C84.7755 27.94 85.6755 27.57 86.7555 27.27C87.8555 26.97 89.1655 26.74 90.6855 26.58C90.6655 26.2 90.6055 25.84 90.5055 25.5C90.4255 25.14 90.2755 24.83 90.0555 24.57C89.8555 24.29 89.5855 24.08 89.2455 23.94C88.9055 23.78 88.4855 23.7 87.9855 23.7C87.2655 23.7 86.5555 23.84 85.8555 24.12C85.1755 24.4 84.5055 24.74 83.8455 25.14L82.5855 22.83C83.4055 22.31 84.3255 21.86 85.3455 21.48C86.3655 21.1 87.4655 20.91 88.6455 20.91C90.4855 20.91 91.8555 21.46 92.7555 22.56C93.6755 23.64 94.1355 25.21 94.1355 27.27V36H91.2855L91.0455 34.38H90.9255C90.2655 34.94 89.5555 35.41 88.7955 35.79C88.0555 36.17 87.2455 36.36 86.3655 36.36ZM87.4755 33.66C88.0755 33.66 88.6155 33.52 89.0955 33.24C89.5955 32.96 90.1255 32.56 90.6855 32.04V28.74C89.6855 28.86 88.8455 29.02 88.1655 29.22C87.4855 29.42 86.9355 29.65 86.5155 29.91C86.0955 30.15 85.7955 30.43 85.6155 30.75C85.4355 31.07 85.3455 31.41 85.3455 31.77C85.3455 32.43 85.5455 32.91 85.9455 33.21C86.3455 33.51 86.8555 33.66 87.4755 33.66Z" fill="#4A2518"/>
<path d="M98.2642 36V21.27H101.114L101.354 23.25H101.474C102.134 22.61 102.844 22.06 103.604 21.6C104.384 21.14 105.284 20.91 106.304 20.91C107.884 20.91 109.034 21.42 109.754 22.44C110.474 23.44 110.834 24.88 110.834 26.76V36H107.384V27.21C107.384 25.99 107.204 25.13 106.844 24.63C106.484 24.13 105.894 23.88 105.074 23.88C104.434 23.88 103.864 24.04 103.364 24.36C102.884 24.66 102.334 25.11 101.714 25.71V36H98.2642Z" fill="#4A2518"/>
<path d="M121.351 36.36C120.331 36.36 119.381 36.19 118.501 35.85C117.621 35.49 116.851 34.98 116.191 34.32C115.531 33.66 115.011 32.86 114.631 31.92C114.271 30.96 114.091 29.87 114.091 28.65C114.091 27.45 114.281 26.37 114.661 25.41C115.041 24.45 115.541 23.64 116.161 22.98C116.801 22.32 117.531 21.81 118.351 21.45C119.171 21.09 120.011 20.91 120.871 20.91C121.871 20.91 122.751 21.08 123.511 21.42C124.271 21.76 124.901 22.24 125.401 22.86C125.921 23.48 126.311 24.22 126.571 25.08C126.831 25.94 126.961 26.88 126.961 27.9C126.961 28.24 126.941 28.56 126.901 28.86C126.881 29.16 126.851 29.4 126.811 29.58H117.451C117.611 30.9 118.071 31.92 118.831 32.64C119.611 33.34 120.601 33.69 121.801 33.69C122.441 33.69 123.031 33.6 123.571 33.42C124.131 33.22 124.681 32.95 125.221 32.61L126.391 34.77C125.691 35.23 124.911 35.61 124.051 35.91C123.191 36.21 122.291 36.36 121.351 36.36ZM117.421 27.24H123.961C123.961 26.1 123.711 25.21 123.211 24.57C122.731 23.91 121.981 23.58 120.961 23.58C120.081 23.58 119.311 23.89 118.651 24.51C117.991 25.13 117.581 26.04 117.421 27.24Z" fill="#4A2518"/>
<path d="M135.153 36.36C134.293 36.36 133.563 36.23 132.963 35.97C132.383 35.71 131.903 35.35 131.523 34.89C131.163 34.41 130.893 33.85 130.713 33.21C130.553 32.55 130.473 31.82 130.473 31.02V24H128.373V21.42L130.653 21.27L131.073 17.25H133.953V21.27H137.703V24H133.953V31.02C133.953 32.74 134.643 33.6 136.023 33.6C136.283 33.6 136.543 33.57 136.803 33.51C137.083 33.45 137.333 33.37 137.553 33.27L138.153 35.82C137.753 35.96 137.293 36.08 136.773 36.18C136.273 36.3 135.733 36.36 135.153 36.36Z" fill="#4A2518"/>
<path d="M145.009 36L150.589 25.89L145.369 16.38H149.239L151.399 20.73C151.639 21.19 151.869 21.66 152.089 22.14C152.329 22.62 152.599 23.15 152.899 23.73H153.019C153.259 23.15 153.479 22.62 153.679 22.14C153.899 21.66 154.119 21.19 154.339 20.73L156.409 16.38H160.099L154.879 26.04L160.459 36H156.589L154.189 31.38C153.929 30.86 153.669 30.35 153.409 29.85C153.169 29.33 152.899 28.77 152.599 28.17H152.479C152.219 28.77 151.969 29.33 151.729 29.85C151.509 30.35 151.279 30.86 151.039 31.38L148.699 36H145.009Z" fill="#4A2518"/>
<defs>
<clipPath id="clip0_1:46">
<rect width="40" height="40" fill="white" transform="translate(5 5)"/>
</clipPath>
</defs>
</svg>
