<svg width="50" height="50" viewBox="0 0 50 50" fill="none" xmlns="http://www.w3.org/2000/svg">
<g clip-path="url(#clip0_1:74)">
<path d="M44.2915 5.7062C42.4579 3.87275 37.3969 5.71673 31.239 9.9928C29.2619 9.16892 27.1409 8.74548 24.9989 8.747C16.0232 8.747 8.74708 16.0233 8.74708 24.9988C8.74552 27.1409 9.1689 29.2619 9.99273 31.2391C5.71667 37.397 3.87269 42.458 5.70629 44.2915C7.54157 46.1268 12.6056 44.2906 18.7699 40.0092C20.744 40.8301 22.861 41.252 24.9989 41.2507C33.9745 41.2507 41.2506 33.9746 41.2506 24.9988C41.2519 22.861 40.8299 20.744 40.009 18.77C44.2904 12.6056 46.1268 7.54148 44.2915 5.7062ZM9.99715 40.0006C9.37501 39.3785 10.1894 37.4315 12.0097 34.7369C12.9357 35.9702 14.0318 37.0659 15.2654 37.9914C12.5653 39.8158 10.6204 40.6237 9.99715 40.0006ZM18.4824 35.617C14.9074 33.4146 12.4974 29.4972 12.4974 24.9988C12.4974 18.1056 18.1055 12.4975 24.9989 12.4975C29.4973 12.4975 33.4144 14.9073 35.6169 18.4825C33.4694 21.1951 30.6865 24.3117 27.499 27.4991C24.3115 30.6867 21.195 33.4695 18.4824 35.617ZM24.9989 37.5003C24.1512 37.5005 23.3056 37.4145 22.4753 37.2437C25.1985 35.0629 27.7976 32.7315 30.2604 30.2604C32.7316 27.7977 35.0629 25.1986 37.2435 22.4754C37.4144 23.3056 37.5004 24.1512 37.5002 24.9988C37.5002 31.8922 31.8921 37.5003 24.9989 37.5003ZM34.737 12.0098C37.4315 10.1896 39.3784 9.37508 40.0005 9.99722C40.6236 10.6203 39.8159 12.5651 37.9913 15.2653C37.0658 14.0318 35.9701 12.9357 34.737 12.0098Z" fill="#C2371E"/>
</g>
<defs>
<clipPath id="clip0_1:74">
<rect width="40" height="40" fill="white" transform="translate(5 5)"/>
</clipPath>
</defs>
</svg>
