<svg width="40" height="40" viewBox="0 0 40 40" fill="none" xmlns="http://www.w3.org/2000/svg">
<g clip-path="url(#clip0_1:47)">
<path d="M10.7469 18.5H29.2484C30.8703 18.5 31.8078 16.4422 30.8797 14.9422C29 11.9 24.8515 9.50469 20 9.5C15.1484 9.50469 11 11.9 9.11561 14.9422C8.18749 16.4422 9.12968 18.5 10.7469 18.5ZM26 13.25C26.1483 13.25 26.2933 13.294 26.4167 13.3764C26.54 13.4588 26.6361 13.5759 26.6929 13.713C26.7497 13.85 26.7645 14.0008 26.7356 14.1463C26.7066 14.2918 26.6352 14.4254 26.5303 14.5303C26.4254 14.6352 26.2918 14.7067 26.1463 14.7356C26.0008 14.7645 25.85 14.7497 25.713 14.6929C25.5759 14.6361 25.4588 14.54 25.3764 14.4167C25.294 14.2933 25.25 14.1483 25.25 14C25.25 13.8011 25.329 13.6103 25.4697 13.4697C25.6103 13.329 25.8011 13.25 26 13.25ZM20 11.75C20.1483 11.75 20.2933 11.794 20.4167 11.8764C20.54 11.9588 20.6361 12.0759 20.6929 12.213C20.7497 12.35 20.7645 12.5008 20.7356 12.6463C20.7066 12.7918 20.6352 12.9254 20.5303 13.0303C20.4254 13.1352 20.2918 13.2067 20.1463 13.2356C20.0008 13.2645 19.85 13.2497 19.713 13.1929C19.5759 13.1361 19.4588 13.04 19.3764 12.9167C19.294 12.7933 19.25 12.6483 19.25 12.5C19.25 12.3011 19.329 12.1103 19.4697 11.9697C19.6103 11.829 19.8011 11.75 20 11.75ZM14 13.25C14.1483 13.25 14.2933 13.294 14.4167 13.3764C14.54 13.4588 14.6361 13.5759 14.6929 13.713C14.7497 13.85 14.7645 14.0008 14.7356 14.1463C14.7066 14.2918 14.6352 14.4254 14.5303 14.5303C14.4254 14.6352 14.2918 14.7067 14.1463 14.7356C14.0008 14.7645 13.85 14.7497 13.713 14.6929C13.5759 14.6361 13.4588 14.54 13.3764 14.4167C13.294 14.2933 13.25 14.1483 13.25 14C13.25 13.8011 13.329 13.6103 13.4697 13.4697C13.6103 13.329 13.8011 13.25 14 13.25ZM30.5 26H9.49999C9.30108 26 9.11031 26.079 8.96966 26.2197C8.82901 26.3603 8.74999 26.5511 8.74999 26.75V27.5C8.75073 28.2954 9.06704 29.0581 9.62949 29.6205C10.1919 30.1829 10.9546 30.4993 11.75 30.5H28.25C29.0454 30.4993 29.808 30.1829 30.3705 29.6205C30.9329 29.0581 31.2492 28.2954 31.25 27.5V26.75C31.25 26.5511 31.171 26.3603 31.0303 26.2197C30.8897 26.079 30.6989 26 30.5 26Z" fill="#ED8D47"/>
<path d="M32 22.25C32 22.8467 31.7629 23.419 31.341 23.841C30.919 24.2629 30.3467 24.5 29.75 24.5H10.25C9.65326 24.5 9.08097 24.2629 8.65901 23.841C8.23705 23.419 8 22.8467 8 22.25C8 21.6533 8.23705 21.081 8.65901 20.659C9.08097 20.2371 9.65326 20 10.25 20H18.5L23 23L27.5 20H29.75C30.3467 20 30.919 20.2371 31.341 20.659C31.7629 21.081 32 21.6533 32 22.25Z" fill="#4A2518"/>
</g>
<defs>
<clipPath id="clip0_1:47">
<rect width="24" height="24" fill="white" transform="translate(8 8)"/>
</clipPath>
</defs>
</svg>
